<?xml version="1.0" encoding="utf-8"?>
<!-- Generator: Adobe Illustrator 24.1.2, SVG Export Plug-In . SVG Version: 6.00 Build 0)  -->
<svg version="1.1" id="Layer_1" xmlns="http://www.w3.org/2000/svg" xmlns:xlink="http://www.w3.org/1999/xlink" x="0px" y="0px"
	 viewBox="0 0 512 512" style="enable-background:new 0 0 512 512;" xml:space="preserve">
<style type="text/css">
	.st0{fill:#24263A;stroke:#FF6347;stroke-width:32;stroke-linejoin:round;}
	.st1{fill:none;stroke:#FF6347;stroke-width:32;stroke-linejoin:round;}
</style>
<rect x="-111" y="-102" class="st0" width="750" height="676"/>
<path class="st1" d="M76,96h360c15.5,0,28,12.5,28,28v264c0,15.5-12.5,28-28,28H76c-15.5,0-28-12.5-28-28V124
	C48,108.5,60.5,96,76,96z"/>
<path class="st1" d="M412,336h24c15.5,0,28,12.5,28,28v24c0,15.5-12.5,28-28,28h-24c-15.5,0-28-12.5-28-28v-24
	C384,348.5,396.5,336,412,336z"/>
<path class="st1" d="M412,256h24c15.5,0,28,12.5,28,28v24c0,15.5-12.5,28-28,28h-24c-15.5,0-28-12.5-28-28v-24
	C384,268.5,396.5,256,412,256z"/>
<path class="st1" d="M412,176h24c15.5,0,28,12.5,28,28v24c0,15.5-12.5,28-28,28h-24c-15.5,0-28-12.5-28-28v-24
	C384,188.5,396.5,176,412,176z"/>
<path class="st1" d="M412,96h24c15.5,0,28,12.5,28,28v24c0,15.5-12.5,28-28,28h-24c-15.5,0-28-12.5-28-28v-24
	C384,108.5,396.5,96,412,96z"/>
<path class="st1" d="M76,336h24c15.5,0,28,12.5,28,28v24c0,15.5-12.5,28-28,28H76c-15.5,0-28-12.5-28-28v-24
	C48,348.5,60.5,336,76,336z"/>
<path class="st1" d="M76,256h24c15.5,0,28,12.5,28,28v24c0,15.5-12.5,28-28,28H76c-15.5,0-28-12.5-28-28v-24
	C48,268.5,60.5,256,76,256z"/>
<path class="st1" d="M76,176h24c15.5,0,28,12.5,28,28v24c0,15.5-12.5,28-28,28H76c-15.5,0-28-12.5-28-28v-24
	C48,188.5,60.5,176,76,176z"/>
<path class="st1" d="M76,96h24c15.5,0,28,12.5,28,28v24c0,15.5-12.5,28-28,28H76c-15.5,0-28-12.5-28-28v-24C48,108.5,60.5,96,76,96z
	"/>
<path class="st1" d="M156,96h200c15.5,0,28,12.5,28,28v104c0,15.5-12.5,28-28,28H156c-15.5,0-28-12.5-28-28V124
	C128,108.5,140.5,96,156,96z"/>
<path class="st1" d="M156,256h200c15.5,0,28,12.5,28,28v104c0,15.5-12.5,28-28,28H156c-15.5,0-28-12.5-28-28V284
	C128,268.5,140.5,256,156,256z"/>
</svg>
